<?xml version="1.0"?>
<svg width="2001.0" height="201.0" version="1.1" xmlns="http://www.w3.org/2000/svg">
<line fill="none" x1="210.0" y1="10.0" x2="210.0" y2="110.00000000000001" id="svg_1" stroke="#000000"/>                    <line fill="none" x1="310.0" y1="10.0" x2="310.0" y2="110.00000000000001" id="svg_1" stroke="#000000"/>                    <line fill="none" y1="10.0" x1="210.0" y2="10.0" x2="310.0" id="svg_1" stroke="#000000"/>                    <line fill="none" y1="110.00000000000001" x1="210.0" y2="110.00000000000001" x2="310.0" id="svg_1" stroke="#000000"/>                    <line fill="none" y1="10.0" x1="220.00000000000003" y2="20.0" x2="220.00000000000003" id="svg_1" stroke="#000000"/>                    <line fill="none" y1="20.0" x1="210.0" y2="20.0" x2="220.00000000000003" id="svg_1" stroke="#000000"/>                    <line fill="none" y1="10.0" x1="300.0" y2="20.0" x2="300.0" id="svg_1" stroke="#000000"/>                    <line fill="none" y1="20.0" x1="310.0" y2="20.0" x2="300.0" id="svg_1" stroke="#000000"/>                    <line stroke="#000000" id="svg_1" x2="220.00000000000003" y2="100.0" x1="220.00000000000003" y1="110.00000000000001" fill="none"/>                    <line stroke="#000000" id="svg_1" x2="220.00000000000003" y2="100.0" x1="210.0" y1="100.0" fill="none"/>                    <line stroke="#000000" id="svg_1" x2="300.0" y2="100.0" x1="300.0" y1="110.00000000000001" fill="none"/>                    <line stroke="#000000" id="svg_1" x2="300.0" y2="100.0" x1="310.0" y1="100.0" fill="none"/>
<line fill="none" x1="449.78479342780275" y1="10.0" x2="449.78479342780275" y2="50.0" id="svg_1" stroke="#000000"/>                    <line fill="none" x1="489.7847934278028" y1="10.0" x2="489.7847934278028" y2="50.0" id="svg_1" stroke="#000000"/>                    <line fill="none" y1="10.0" x1="449.78479342780275" y2="10.0" x2="489.7847934278028" id="svg_1" stroke="#000000"/>                    <line fill="none" y1="50.0" x1="449.78479342780275" y2="50.0" x2="489.7847934278028" id="svg_1" stroke="#000000"/>                    <line fill="none" y1="10.0" x1="453.78479342780275" y2="14.000000000000002" x2="453.78479342780275" id="svg_1" stroke="#000000"/>                    <line fill="none" y1="14.000000000000002" x1="449.78479342780275" y2="14.000000000000002" x2="453.78479342780275" id="svg_1" stroke="#000000"/>                    <line fill="none" y1="10.0" x1="485.7847934278028" y2="14.000000000000002" x2="485.7847934278028" id="svg_1" stroke="#000000"/>                    <line fill="none" y1="14.000000000000002" x1="489.7847934278028" y2="14.000000000000002" x2="485.7847934278028" id="svg_1" stroke="#000000"/>                    <line stroke="#000000" id="svg_1" x2="453.78479342780275" y2="46.00000000000001" x1="453.78479342780275" y1="50.0" fill="none"/>                    <line stroke="#000000" id="svg_1" x2="453.78479342780275" y2="46.00000000000001" x1="449.78479342780275" y1="46.00000000000001" fill="none"/>                    <line stroke="#000000" id="svg_1" x2="485.7847934278028" y2="46.00000000000001" x1="485.7847934278028" y1="50.0" fill="none"/>                    <line stroke="#000000" id="svg_1" x2="485.7847934278028" y2="46.00000000000001" x1="489.7847934278028" y1="46.00000000000001" fill="none"/>
<line fill="none" x1="390.0718487609569" y1="10.0" x2="390.0718487609569" y2="70.0" id="svg_1" stroke="#000000"/>                    <line fill="none" x1="450.07184876095687" y1="10.0" x2="450.07184876095687" y2="70.0" id="svg_1" stroke="#000000"/>                    <line fill="none" y1="10.0" x1="390.0718487609569" y2="10.0" x2="450.07184876095687" id="svg_1" stroke="#000000"/>                    <line fill="none" y1="70.0" x1="390.0718487609569" y2="70.0" x2="450.07184876095687" id="svg_1" stroke="#000000"/>                    <line fill="none" y1="10.0" x1="396.0718487609569" y2="16.0" x2="396.0718487609569" id="svg_1" stroke="#000000"/>                    <line fill="none" y1="16.0" x1="390.0718487609569" y2="16.0" x2="396.0718487609569" id="svg_1" stroke="#000000"/>                    <line fill="none" y1="10.0" x1="444.0718487609569" y2="16.0" x2="444.0718487609569" id="svg_1" stroke="#000000"/>                    <line fill="none" y1="16.0" x1="450.07184876095687" y2="16.0" x2="444.0718487609569" id="svg_1" stroke="#000000"/>                    <line stroke="#000000" id="svg_1" x2="396.0718487609569" y2="64.0" x1="396.0718487609569" y1="70.0" fill="none"/>                    <line stroke="#000000" id="svg_1" x2="396.0718487609569" y2="64.0" x1="390.0718487609569" y1="64.0" fill="none"/>                    <line stroke="#000000" id="svg_1" x2="444.0718487609569" y2="64.0" x1="444.0718487609569" y1="70.0" fill="none"/>                    <line stroke="#000000" id="svg_1" x2="444.0718487609569" y2="64.0" x1="450.07184876095687" y1="64.0" fill="none"/>
<line fill="none" x1="309.995221406292" y1="10.0" x2="309.995221406292" y2="90.0" id="svg_1" stroke="#000000"/>                    <line fill="none" x1="389.995221406292" y1="10.0" x2="389.995221406292" y2="90.0" id="svg_1" stroke="#000000"/>                    <line fill="none" y1="10.0" x1="309.995221406292" y2="10.0" x2="389.995221406292" id="svg_1" stroke="#000000"/>                    <line fill="none" y1="90.0" x1="309.995221406292" y2="90.0" x2="389.995221406292" id="svg_1" stroke="#000000"/>                    <line fill="none" y1="10.0" x1="317.995221406292" y2="18.000000000000004" x2="317.995221406292" id="svg_1" stroke="#000000"/>                    <line fill="none" y1="18.000000000000004" x1="309.995221406292" y2="18.000000000000004" x2="317.995221406292" id="svg_1" stroke="#000000"/>                    <line fill="none" y1="10.0" x1="381.995221406292" y2="18.000000000000004" x2="381.995221406292" id="svg_1" stroke="#000000"/>                    <line fill="none" y1="18.000000000000004" x1="389.995221406292" y2="18.000000000000004" x2="381.995221406292" id="svg_1" stroke="#000000"/>                    <line stroke="#000000" id="svg_1" x2="317.995221406292" y2="82.0" x1="317.995221406292" y1="90.0" fill="none"/>                    <line stroke="#000000" id="svg_1" x2="317.995221406292" y2="82.0" x1="309.995221406292" y1="82.0" fill="none"/>                    <line stroke="#000000" id="svg_1" x2="381.995221406292" y2="82.0" x1="381.995221406292" y1="90.0" fill="none"/>                    <line stroke="#000000" id="svg_1" x2="381.995221406292" y2="82.0" x1="389.995221406292" y1="82.0" fill="none"/>
<line fill="none" x1="210.0" y1="150.0" x2="210.0" y2="190.0" id="svg_1" stroke="#000000"/>                    <line fill="none" x1="250.0" y1="150.0" x2="250.0" y2="190.0" id="svg_1" stroke="#000000"/>                    <line fill="none" y1="150.0" x1="210.0" y2="150.0" x2="250.0" id="svg_1" stroke="#000000"/>                    <line fill="none" y1="190.0" x1="210.0" y2="190.0" x2="250.0" id="svg_1" stroke="#000000"/>                    <line fill="none" y1="150.0" x1="214.0" y2="154.0" x2="214.0" id="svg_1" stroke="#000000"/>                    <line fill="none" y1="154.0" x1="210.0" y2="154.0" x2="214.0" id="svg_1" stroke="#000000"/>                    <line fill="none" y1="150.0" x1="246.0" y2="154.0" x2="246.0" id="svg_1" stroke="#000000"/>                    <line fill="none" y1="154.0" x1="250.0" y2="154.0" x2="246.0" id="svg_1" stroke="#000000"/>                    <line stroke="#000000" id="svg_1" x2="214.0" y2="186.0" x1="214.0" y1="190.0" fill="none"/>                    <line stroke="#000000" id="svg_1" x2="214.0" y2="186.0" x1="210.0" y1="186.0" fill="none"/>                    <line stroke="#000000" id="svg_1" x2="246.0" y2="186.0" x1="246.0" y1="190.0" fill="none"/>                    <line stroke="#000000" id="svg_1" x2="246.0" y2="186.0" x1="250.0" y1="186.0" fill="none"/>
<line fill="none" x1="250.11963469803703" y1="129.99999999999997" x2="250.11963469803703" y2="190.0" id="svg_1" stroke="#000000"/>                    <line fill="none" x1="310.11963469803703" y1="129.99999999999997" x2="310.11963469803703" y2="190.0" id="svg_1" stroke="#000000"/>                    <line fill="none" y1="129.99999999999997" x1="250.11963469803703" y2="129.99999999999997" x2="310.11963469803703" id="svg_1" stroke="#000000"/>                    <line fill="none" y1="190.0" x1="250.11963469803703" y2="190.0" x2="310.11963469803703" id="svg_1" stroke="#000000"/>                    <line fill="none" y1="129.99999999999997" x1="256.11963469803703" y2="136.0" x2="256.11963469803703" id="svg_1" stroke="#000000"/>                    <line fill="none" y1="136.0" x1="250.11963469803703" y2="136.0" x2="256.11963469803703" id="svg_1" stroke="#000000"/>                    <line fill="none" y1="129.99999999999997" x1="304.11963469803703" y2="136.0" x2="304.11963469803703" id="svg_1" stroke="#000000"/>                    <line fill="none" y1="136.0" x1="310.11963469803703" y2="136.0" x2="304.11963469803703" id="svg_1" stroke="#000000"/>                    <line stroke="#000000" id="svg_1" x2="256.11963469803703" y2="184.0" x1="256.11963469803703" y1="190.0" fill="none"/>                    <line stroke="#000000" id="svg_1" x2="256.11963469803703" y2="184.0" x1="250.11963469803703" y1="184.0" fill="none"/>                    <line stroke="#000000" id="svg_1" x2="304.11963469803703" y2="184.0" x1="304.11963469803703" y1="190.0" fill="none"/>                    <line stroke="#000000" id="svg_1" x2="304.11963469803703" y2="184.0" x1="310.11963469803703" y1="184.0" fill="none"/>
<line fill="none" x1="309.83257936488286" y1="109.99999999999999" x2="309.83257936488286" y2="190.0" id="svg_1" stroke="#000000"/>                    <line fill="none" x1="389.8325793648829" y1="109.99999999999999" x2="389.8325793648829" y2="190.0" id="svg_1" stroke="#000000"/>                    <line fill="none" y1="109.99999999999999" x1="309.83257936488286" y2="109.99999999999999" x2="389.8325793648829" id="svg_1" stroke="#000000"/>                    <line fill="none" y1="190.0" x1="309.83257936488286" y2="190.0" x2="389.8325793648829" id="svg_1" stroke="#000000"/>                    <line fill="none" y1="109.99999999999999" x1="317.8325793648829" y2="118.0" x2="317.8325793648829" id="svg_1" stroke="#000000"/>                    <line fill="none" y1="118.0" x1="309.83257936488286" y2="118.0" x2="317.8325793648829" id="svg_1" stroke="#000000"/>                    <line fill="none" y1="109.99999999999999" x1="381.8325793648829" y2="118.0" x2="381.8325793648829" id="svg_1" stroke="#000000"/>                    <line fill="none" y1="118.0" x1="389.8325793648829" y2="118.0" x2="381.8325793648829" id="svg_1" stroke="#000000"/>                    <line stroke="#000000" id="svg_1" x2="317.8325793648829" y2="181.99999999999997" x1="317.8325793648829" y1="190.0" fill="none"/>                    <line stroke="#000000" id="svg_1" x2="317.8325793648829" y2="181.99999999999997" x1="309.83257936488286" y1="181.99999999999997" fill="none"/>                    <line stroke="#000000" id="svg_1" x2="381.8325793648829" y2="181.99999999999997" x1="381.8325793648829" y1="190.0" fill="none"/>                    <line stroke="#000000" id="svg_1" x2="381.8325793648829" y2="181.99999999999997" x1="389.8325793648829" y1="181.99999999999997" fill="none"/>
<line fill="none" x1="390.07184876095704" y1="89.99999999999999" x2="390.07184876095704" y2="190.0" id="svg_1" stroke="#000000"/>                    <line fill="none" x1="490.071848760957" y1="89.99999999999999" x2="490.071848760957" y2="190.0" id="svg_1" stroke="#000000"/>                    <line fill="none" y1="89.99999999999999" x1="390.07184876095704" y2="89.99999999999999" x2="490.071848760957" id="svg_1" stroke="#000000"/>                    <line fill="none" y1="190.0" x1="390.07184876095704" y2="190.0" x2="490.071848760957" id="svg_1" stroke="#000000"/>                    <line fill="none" y1="89.99999999999999" x1="400.07184876095704" y2="99.99999999999999" x2="400.07184876095704" id="svg_1" stroke="#000000"/>                    <line fill="none" y1="99.99999999999999" x1="390.07184876095704" y2="99.99999999999999" x2="400.07184876095704" id="svg_1" stroke="#000000"/>                    <line fill="none" y1="89.99999999999999" x1="480.07184876095704" y2="99.99999999999999" x2="480.07184876095704" id="svg_1" stroke="#000000"/>                    <line fill="none" y1="99.99999999999999" x1="490.071848760957" y2="99.99999999999999" x2="480.07184876095704" id="svg_1" stroke="#000000"/>                    <line stroke="#000000" id="svg_1" x2="400.07184876095704" y2="179.99999999999997" x1="400.07184876095704" y1="190.0" fill="none"/>                    <line stroke="#000000" id="svg_1" x2="400.07184876095704" y2="179.99999999999997" x1="390.07184876095704" y1="179.99999999999997" fill="none"/>                    <line stroke="#000000" id="svg_1" x2="480.07184876095704" y2="179.99999999999997" x1="480.07184876095704" y1="190.0" fill="none"/>                    <line stroke="#000000" id="svg_1" x2="480.07184876095704" y2="179.99999999999997" x1="490.071848760957" y1="179.99999999999997" fill="none"/>
<line stroke="#000000" stroke-width="1" x1="200.0" y1="0.0" x2="2000.0" y2="0.0"/>                    <line stroke="#000000" stroke-width="1" x1="210.0" y1="10.0" x2="1739.9999999999998" y2="10.0"/>                    <line stroke="#000000" stroke-width="1" x1="200.0" y1="200.0" x2="2000.0" y2="200.0" />                    <line stroke="#000000" stroke-width="1" x1="210.0" y1="190.0" x2="1739.9999999999998" y2="190.0"/>                    <line stroke="#000000" stroke-width="1" x1="0.0" y1="100.0" x2="200.0" y2="0.0" />                    <line stroke="#000000" stroke-width="1" x1="0.0" y1="100.0" x2="200.0" y2="200.0" />                    <line stroke="#000000" stroke-width="1" x1="1750.0" y1="0.0" x2="1750.0" y2="200.0" />                    <line stroke="#000000" stroke-width="1" x1="1739.9999999999998" y1="10.0" x2="1739.9999999999998" y2="190.0" />                    <line stroke="#000000" stroke-width="1" x1="200.0" y1="0.0" x2="200.0" y2="200.0" />                    <line stroke="#000000" stroke-width="1" x1="210.0" y1="10.0" x2="210.0" y2="190.0" />                    <line stroke="#000000" stroke-width="1" x1="2000.0" y1="0.0" x2="2000.0" y2="200.0" /></svg>