<?xml version="1.0"?>
<svg width="2001.0" height="201.0" version="1.1" xmlns="http://www.w3.org/2000/svg">
<line stroke="#ff5500" stroke-width="1" x1="464.00000000000006" y1="10.0" x2="464.00000000000006" y2="50.0" />
<line stroke="#ff5500" stroke-width="1" x1="464.00000000000006" y1="10.0" x2="504.0000000000001" y2="10.0" />
<line stroke="#ff5500" stroke-width="1" x1="464.00000000000006" y1="50.0" x2="504.0000000000001" y2="50.0" />
<line stroke="#ff5500" stroke-width="1" x1="504.0000000000001" y1="10.0" x2="504.0000000000001" y2="50.0" />
<line stroke="#ff5500" stroke-width="1" x1="464.00000000000006" y1="18.000000000000004" x2="504.0000000000001" y2="18.000000000000004" />

<line stroke="#55aa00" stroke-width="1" x1="750.0" y1="10.0" x2="750.0" y2="190.0" />
<line stroke="#55aa00" stroke-width="1" x1="765.0" y1="10.0" x2="765.0" y2="190.0" />
<line stroke="#55aa00" stroke-width="1" x1="750.0" y1="15.000000000000002" x2="765.0" y2="15.000000000000002" />
<line stroke="#55aa00" stroke-width="1" x1="750.0" y1="85.0" x2="765.0" y2="85.0" />

<line stroke="#aa007f" stroke-width="1" x1="1083.9999999999998" y1="10.0" x2="1083.9999999999998" y2="190.0" />
<line stroke="#aa007f" stroke-width="1" x1="1093.9999999999998" y1="10.0" x2="1093.9999999999998" y2="190.0" />
<line stroke="#aa007f" stroke-width="1" x1="1083.9999999999998" y1="20.0" x2="1093.9999999999998" y2="20.0" />
<line stroke="#aa007f" stroke-width="1" x1="1083.9999999999998" y1="89.99999999999999" x2="1093.9999999999998" y2="89.99999999999999" />

<line stroke="#0000ff" stroke-width="1" x1="507.99999999999994" y1="10.0" x2="507.99999999999994" y2="190.0" />
<line stroke="#0000ff" stroke-width="1" x1="517.9999999999999" y1="10.0" x2="517.9999999999999" y2="190.0" />
<line stroke="#0000ff" stroke-width="1" x1="507.99999999999994" y1="110.00000000000001" x2="517.9999999999999" y2="110.00000000000001" />
<line stroke="#0000ff" stroke-width="1" x1="507.99999999999994" y1="180.0" x2="517.9999999999999" y2="180.0" />

<line stroke="#ff0000" stroke-width="1" x1="420.0000000000001" y1="10.0" x2="420.0000000000001" y2="50.0" />
<line stroke="#ff0000" stroke-width="1" x1="420.0000000000001" y1="10.0" x2="460.0000000000001" y2="10.0" />
<line stroke="#ff0000" stroke-width="1" x1="420.0000000000001" y1="50.0" x2="460.0000000000001" y2="50.0" />
<line stroke="#ff0000" stroke-width="1" x1="460.0000000000001" y1="10.0" x2="460.0000000000001" y2="50.0" />
<line stroke="#ff0000" stroke-width="1" x1="420.0000000000001" y1="18.000000000000004" x2="460.0000000000001" y2="18.000000000000004" />

<line stroke="#ff007f" stroke-width="1" x1="376.0" y1="10.0" x2="376.0" y2="50.0" />
<line stroke="#ff007f" stroke-width="1" x1="376.0" y1="10.0" x2="416.0" y2="10.0" />
<line stroke="#ff007f" stroke-width="1" x1="376.0" y1="50.0" x2="416.0" y2="50.0" />
<line stroke="#ff007f" stroke-width="1" x1="416.0" y1="10.0" x2="416.0" y2="50.0" />
<line stroke="#ff007f" stroke-width="1" x1="376.0" y1="18.000000000000004" x2="416.0" y2="18.000000000000004" />

<line stroke="#aa007f" stroke-width="1" x1="332.0" y1="10.0" x2="332.0" y2="50.0" />
<line stroke="#aa007f" stroke-width="1" x1="332.0" y1="10.0" x2="372.0" y2="10.0" />
<line stroke="#aa007f" stroke-width="1" x1="332.0" y1="50.0" x2="372.0" y2="50.0" />
<line stroke="#aa007f" stroke-width="1" x1="372.0" y1="10.0" x2="372.0" y2="50.0" />
<line stroke="#aa007f" stroke-width="1" x1="332.0" y1="18.000000000000004" x2="372.0" y2="18.000000000000004" />

<line stroke="#ffaa00" stroke-width="1" x1="649.9999999999998" y1="89.99999999999999" x2="649.9999999999998" y2="190.0" />
<line stroke="#ffaa00" stroke-width="1" x1="749.9999999999998" y1="89.99999999999999" x2="749.9999999999998" y2="190.0" />
<line stroke="#ffaa00" stroke-width="1" x1="649.9999999999998" y1="89.99999999999999" x2="749.9999999999998" y2="89.99999999999999" />
<line stroke="#ffaa00" stroke-width="1" x1="649.9999999999998" y1="190.0" x2="749.9999999999998" y2="190.0" />
<line stroke="#ffaa00" stroke-width="1" x1="659.9999999999998" y1="89.99999999999999" x2="659.9999999999998" y2="99.99999999999999" />
<line stroke="#ffaa00" stroke-width="1" x1="649.9999999999998" y1="99.99999999999999" x2="659.9999999999998" y2="99.99999999999999" />
<line stroke="#ffaa00" stroke-width="1" x1="739.9999999999999" y1="89.99999999999999" x2="739.9999999999999" y2="99.99999999999999" />
<line stroke="#ffaa00" stroke-width="1" x1="749.9999999999998" y1="99.99999999999999" x2="739.9999999999999" y2="99.99999999999999" />
<line stroke="#ffaa00" stroke-width="1" x1="659.9999999999998" y1="190.0" x2="659.9999999999998" y2="179.99999999999997" />
<line stroke="#ffaa00" stroke-width="1" x1="649.9999999999998" y1="179.99999999999997" x2="659.9999999999998" y2="179.99999999999997" />
<line stroke="#ffaa00" stroke-width="1" x1="739.9999999999999" y1="190.0" x2="739.9999999999999" y2="179.99999999999997" />
<line stroke="#ffaa00" stroke-width="1" x1="749.9999999999998" y1="179.99999999999997" x2="739.9999999999999" y2="179.99999999999997" />

<line stroke="#55aaff" stroke-width="1" x1="1680.0000000000005" y1="10.0" x2="1680.0000000000005" y2="190.0" />
<line stroke="#55aaff" stroke-width="1" x1="1690.0000000000005" y1="10.0" x2="1690.0000000000005" y2="190.0" />
<line stroke="#55aaff" stroke-width="1" x1="1680.0000000000005" y1="70.0" x2="1690.0000000000005" y2="70.0" />
<line stroke="#55aaff" stroke-width="1" x1="1680.0000000000005" y1="140.0" x2="1690.0000000000005" y2="140.0" />

<line stroke="#aaaa7f" stroke-width="1" x1="1332.0" y1="10.0" x2="1332.0" y2="190.0" />
<line stroke="#aaaa7f" stroke-width="1" x1="1342.0" y1="10.0" x2="1342.0" y2="190.0" />
<line stroke="#aaaa7f" stroke-width="1" x1="1332.0" y1="50.0" x2="1342.0" y2="50.0" />
<line stroke="#aaaa7f" stroke-width="1" x1="1332.0" y1="120.0" x2="1342.0" y2="120.0" />

<line stroke="#55557f" stroke-width="1" x1="1689.9999999999998" y1="77.99999999999999" x2="1689.9999999999998" y2="127.99999999999999" />
<line stroke="#55557f" stroke-width="1" x1="1739.9999999999998" y1="77.99999999999999" x2="1739.9999999999998" y2="127.99999999999999" />
<line stroke="#55557f" stroke-width="1" x1="1689.9999999999998" y1="77.99999999999999" x2="1739.9999999999998" y2="77.99999999999999" />
<line stroke="#55557f" stroke-width="1" x1="1689.9999999999998" y1="127.99999999999999" x2="1739.9999999999998" y2="127.99999999999999" />
<line stroke="#55557f" stroke-width="1" x1="1695.0" y1="77.99999999999999" x2="1695.0" y2="83.0" />
<line stroke="#55557f" stroke-width="1" x1="1689.9999999999998" y1="83.0" x2="1695.0" y2="83.0" />
<line stroke="#55557f" stroke-width="1" x1="1734.9999999999998" y1="77.99999999999999" x2="1734.9999999999998" y2="83.0" />
<line stroke="#55557f" stroke-width="1" x1="1739.9999999999998" y1="83.0" x2="1734.9999999999998" y2="83.0" />
<line stroke="#55557f" stroke-width="1" x1="1695.0" y1="127.99999999999999" x2="1695.0" y2="123.0" />
<line stroke="#55557f" stroke-width="1" x1="1689.9999999999998" y1="123.0" x2="1695.0" y2="123.0" />
<line stroke="#55557f" stroke-width="1" x1="1734.9999999999998" y1="127.99999999999999" x2="1734.9999999999998" y2="123.0" />
<line stroke="#55557f" stroke-width="1" x1="1739.9999999999998" y1="123.0" x2="1734.9999999999998" y2="123.0" />

<line stroke="#00aaff" stroke-width="1" x1="1150.0" y1="130.0" x2="1150.0" y2="190.0" />
<line stroke="#00aaff" stroke-width="1" x1="1210.0" y1="130.0" x2="1210.0" y2="190.0" />
<line stroke="#00aaff" stroke-width="1" x1="1150.0" y1="130.0" x2="1210.0" y2="130.0" />
<line stroke="#00aaff" stroke-width="1" x1="1150.0" y1="190.0" x2="1210.0" y2="190.0" />
<line stroke="#00aaff" stroke-width="1" x1="1156.0" y1="130.0" x2="1156.0" y2="136.0" />
<line stroke="#00aaff" stroke-width="1" x1="1150.0" y1="136.0" x2="1156.0" y2="136.0" />
<line stroke="#00aaff" stroke-width="1" x1="1204.0" y1="130.0" x2="1204.0" y2="136.0" />
<line stroke="#00aaff" stroke-width="1" x1="1210.0" y1="136.0" x2="1204.0" y2="136.0" />
<line stroke="#00aaff" stroke-width="1" x1="1156.0" y1="190.0" x2="1156.0" y2="184.0" />
<line stroke="#00aaff" stroke-width="1" x1="1150.0" y1="184.0" x2="1156.0" y2="184.0" />
<line stroke="#00aaff" stroke-width="1" x1="1204.0" y1="190.0" x2="1204.0" y2="184.0" />
<line stroke="#00aaff" stroke-width="1" x1="1210.0" y1="184.0" x2="1204.0" y2="184.0" />

<line stroke="#55aaff" stroke-width="1" x1="1210.0000000000002" y1="129.99999999999997" x2="1210.0000000000002" y2="190.0" />
<line stroke="#55aaff" stroke-width="1" x1="1270.0" y1="129.99999999999997" x2="1270.0" y2="190.0" />
<line stroke="#55aaff" stroke-width="1" x1="1210.0000000000002" y1="129.99999999999997" x2="1270.0" y2="129.99999999999997" />
<line stroke="#55aaff" stroke-width="1" x1="1210.0000000000002" y1="190.0" x2="1270.0" y2="190.0" />
<line stroke="#55aaff" stroke-width="1" x1="1216.0000000000002" y1="129.99999999999997" x2="1216.0000000000002" y2="136.0" />
<line stroke="#55aaff" stroke-width="1" x1="1210.0000000000002" y1="136.0" x2="1216.0000000000002" y2="136.0" />
<line stroke="#55aaff" stroke-width="1" x1="1264.0" y1="129.99999999999997" x2="1264.0" y2="136.0" />
<line stroke="#55aaff" stroke-width="1" x1="1270.0" y1="136.0" x2="1264.0" y2="136.0" />
<line stroke="#55aaff" stroke-width="1" x1="1216.0000000000002" y1="190.0" x2="1216.0000000000002" y2="184.0" />
<line stroke="#55aaff" stroke-width="1" x1="1210.0000000000002" y1="184.0" x2="1216.0000000000002" y2="184.0" />
<line stroke="#55aaff" stroke-width="1" x1="1264.0" y1="190.0" x2="1264.0" y2="184.0" />
<line stroke="#55aaff" stroke-width="1" x1="1270.0" y1="184.0" x2="1264.0" y2="184.0" />

<line stroke="#ff5500" stroke-width="1" x1="831.9999999999999" y1="132.00000000000003" x2="831.9999999999999" y2="172.00000000000003" />
<line stroke="#ff5500" stroke-width="1" x1="831.9999999999999" y1="132.00000000000003" x2="871.9999999999999" y2="132.00000000000003" />
<line stroke="#ff5500" stroke-width="1" x1="831.9999999999999" y1="172.00000000000003" x2="871.9999999999999" y2="172.00000000000003" />
<line stroke="#ff5500" stroke-width="1" x1="871.9999999999999" y1="132.00000000000003" x2="871.9999999999999" y2="172.00000000000003" />
<line stroke="#ff5500" stroke-width="1" x1="831.9999999999999" y1="140.00000000000003" x2="871.9999999999999" y2="140.00000000000003" />

<line stroke="#ff5500" stroke-width="1" x1="939.9999999999999" y1="132.00000000000006" x2="939.9999999999999" y2="172.00000000000006" />
<line stroke="#ff5500" stroke-width="1" x1="939.9999999999999" y1="132.00000000000006" x2="979.9999999999999" y2="132.00000000000006" />
<line stroke="#ff5500" stroke-width="1" x1="939.9999999999999" y1="172.00000000000006" x2="979.9999999999999" y2="172.00000000000006" />
<line stroke="#ff5500" stroke-width="1" x1="979.9999999999999" y1="132.00000000000006" x2="979.9999999999999" y2="172.00000000000006" />
<line stroke="#ff5500" stroke-width="1" x1="939.9999999999999" y1="140.00000000000006" x2="979.9999999999999" y2="140.00000000000006" />

<line stroke="#aaaaff" stroke-width="1" x1="866.0" y1="109.99999999999999" x2="866.0" y2="190.0" />
<line stroke="#aaaaff" stroke-width="1" x1="946.0000000000001" y1="109.99999999999999" x2="946.0000000000001" y2="190.0" />
<line stroke="#aaaaff" stroke-width="1" x1="866.0" y1="109.99999999999999" x2="946.0000000000001" y2="109.99999999999999" />
<line stroke="#aaaaff" stroke-width="1" x1="866.0" y1="190.0" x2="946.0000000000001" y2="190.0" />
<line stroke="#aaaaff" stroke-width="1" x1="874.0" y1="109.99999999999999" x2="874.0" y2="118.0" />
<line stroke="#aaaaff" stroke-width="1" x1="866.0" y1="118.0" x2="874.0" y2="118.0" />
<line stroke="#aaaaff" stroke-width="1" x1="938.0000000000001" y1="109.99999999999999" x2="938.0000000000001" y2="118.0" />
<line stroke="#aaaaff" stroke-width="1" x1="946.0000000000001" y1="118.0" x2="938.0000000000001" y2="118.0" />
<line stroke="#aaaaff" stroke-width="1" x1="874.0" y1="190.0" x2="874.0" y2="181.99999999999997" />
<line stroke="#aaaaff" stroke-width="1" x1="866.0" y1="181.99999999999997" x2="874.0" y2="181.99999999999997" />
<line stroke="#aaaaff" stroke-width="1" x1="938.0000000000001" y1="190.0" x2="938.0000000000001" y2="181.99999999999997" />
<line stroke="#aaaaff" stroke-width="1" x1="946.0000000000001" y1="181.99999999999997" x2="938.0000000000001" y2="181.99999999999997" />

<line stroke="#00557f" stroke-width="1" x1="1470.0" y1="140.0" x2="1470.0" y2="190.0" />
<line stroke="#00557f" stroke-width="1" x1="1520.0" y1="140.0" x2="1520.0" y2="190.0" />
<line stroke="#00557f" stroke-width="1" x1="1470.0" y1="140.0" x2="1520.0" y2="140.0" />
<line stroke="#00557f" stroke-width="1" x1="1470.0" y1="190.0" x2="1520.0" y2="190.0" />
<line stroke="#00557f" stroke-width="1" x1="1475.0000000000002" y1="140.0" x2="1475.0000000000002" y2="145.0" />
<line stroke="#00557f" stroke-width="1" x1="1470.0" y1="145.0" x2="1475.0000000000002" y2="145.0" />
<line stroke="#00557f" stroke-width="1" x1="1515.0" y1="140.0" x2="1515.0" y2="145.0" />
<line stroke="#00557f" stroke-width="1" x1="1520.0" y1="145.0" x2="1515.0" y2="145.0" />
<line stroke="#00557f" stroke-width="1" x1="1475.0000000000002" y1="190.0" x2="1475.0000000000002" y2="185.0" />
<line stroke="#00557f" stroke-width="1" x1="1470.0" y1="185.0" x2="1475.0000000000002" y2="185.0" />
<line stroke="#00557f" stroke-width="1" x1="1515.0" y1="190.0" x2="1515.0" y2="185.0" />
<line stroke="#00557f" stroke-width="1" x1="1520.0" y1="185.0" x2="1515.0" y2="185.0" />

<line stroke="#0055ff" stroke-width="1" x1="1438.0000000000002" y1="12.000000000000025" x2="1438.0000000000002" y2="62.00000000000002" />
<line stroke="#0055ff" stroke-width="1" x1="1488.0000000000002" y1="12.000000000000025" x2="1488.0000000000002" y2="62.00000000000002" />
<line stroke="#0055ff" stroke-width="1" x1="1438.0000000000002" y1="12.000000000000025" x2="1488.0000000000002" y2="12.000000000000025" />
<line stroke="#0055ff" stroke-width="1" x1="1438.0000000000002" y1="62.00000000000002" x2="1488.0000000000002" y2="62.00000000000002" />
<line stroke="#0055ff" stroke-width="1" x1="1443.0000000000002" y1="12.000000000000025" x2="1443.0000000000002" y2="17.000000000000025" />
<line stroke="#0055ff" stroke-width="1" x1="1438.0000000000002" y1="17.000000000000025" x2="1443.0000000000002" y2="17.000000000000025" />
<line stroke="#0055ff" stroke-width="1" x1="1483.0000000000002" y1="12.000000000000025" x2="1483.0000000000002" y2="17.000000000000025" />
<line stroke="#0055ff" stroke-width="1" x1="1488.0000000000002" y1="17.000000000000025" x2="1483.0000000000002" y2="17.000000000000025" />
<line stroke="#0055ff" stroke-width="1" x1="1443.0000000000002" y1="62.00000000000002" x2="1443.0000000000002" y2="57.00000000000003" />
<line stroke="#0055ff" stroke-width="1" x1="1438.0000000000002" y1="57.00000000000003" x2="1443.0000000000002" y2="57.00000000000003" />
<line stroke="#0055ff" stroke-width="1" x1="1483.0000000000002" y1="62.00000000000002" x2="1483.0000000000002" y2="57.00000000000003" />
<line stroke="#0055ff" stroke-width="1" x1="1488.0000000000002" y1="57.00000000000003" x2="1483.0000000000002" y2="57.00000000000003" />

<line stroke="#55aa7f" stroke-width="1" x1="1516.0000000000002" y1="10.0" x2="1516.0000000000002" y2="60.0" />
<line stroke="#55aa7f" stroke-width="1" x1="1566.0000000000002" y1="10.0" x2="1566.0000000000002" y2="60.0" />
<line stroke="#55aa7f" stroke-width="1" x1="1516.0000000000002" y1="10.0" x2="1566.0000000000002" y2="10.0" />
<line stroke="#55aa7f" stroke-width="1" x1="1516.0000000000002" y1="60.0" x2="1566.0000000000002" y2="60.0" />
<line stroke="#55aa7f" stroke-width="1" x1="1521.0000000000002" y1="10.0" x2="1521.0000000000002" y2="15.000000000000002" />
<line stroke="#55aa7f" stroke-width="1" x1="1516.0000000000002" y1="15.000000000000002" x2="1521.0000000000002" y2="15.000000000000002" />
<line stroke="#55aa7f" stroke-width="1" x1="1561.0000000000002" y1="10.0" x2="1561.0000000000002" y2="15.000000000000002" />
<line stroke="#55aa7f" stroke-width="1" x1="1566.0000000000002" y1="15.000000000000002" x2="1561.0000000000002" y2="15.000000000000002" />
<line stroke="#55aa7f" stroke-width="1" x1="1521.0000000000002" y1="60.0" x2="1521.0000000000002" y2="55.00000000000001" />
<line stroke="#55aa7f" stroke-width="1" x1="1516.0000000000002" y1="55.00000000000001" x2="1521.0000000000002" y2="55.00000000000001" />
<line stroke="#55aa7f" stroke-width="1" x1="1561.0000000000002" y1="60.0" x2="1561.0000000000002" y2="55.00000000000001" />
<line stroke="#55aa7f" stroke-width="1" x1="1566.0000000000002" y1="55.00000000000001" x2="1561.0000000000002" y2="55.00000000000001" />

<line stroke="#00ff7f" stroke-width="1" x1="1370.0" y1="138.0" x2="1370.0" y2="188.0" />
<line stroke="#00ff7f" stroke-width="1" x1="1420.0" y1="138.0" x2="1420.0" y2="188.0" />
<line stroke="#00ff7f" stroke-width="1" x1="1370.0" y1="138.0" x2="1420.0" y2="138.0" />
<line stroke="#00ff7f" stroke-width="1" x1="1370.0" y1="188.0" x2="1420.0" y2="188.0" />
<line stroke="#00ff7f" stroke-width="1" x1="1375.0000000000002" y1="138.0" x2="1375.0000000000002" y2="143.00000000000003" />
<line stroke="#00ff7f" stroke-width="1" x1="1370.0" y1="143.00000000000003" x2="1375.0000000000002" y2="143.00000000000003" />
<line stroke="#00ff7f" stroke-width="1" x1="1415.0" y1="138.0" x2="1415.0" y2="143.00000000000003" />
<line stroke="#00ff7f" stroke-width="1" x1="1420.0" y1="143.00000000000003" x2="1415.0" y2="143.00000000000003" />
<line stroke="#00ff7f" stroke-width="1" x1="1375.0000000000002" y1="188.0" x2="1375.0000000000002" y2="183.0" />
<line stroke="#00ff7f" stroke-width="1" x1="1370.0" y1="183.0" x2="1375.0000000000002" y2="183.0" />
<line stroke="#00ff7f" stroke-width="1" x1="1415.0" y1="188.0" x2="1415.0" y2="183.0" />
<line stroke="#00ff7f" stroke-width="1" x1="1420.0" y1="183.0" x2="1415.0" y2="183.0" />

<line stroke="#ff5500" stroke-width="1" x1="1592.0" y1="150.0" x2="1592.0" y2="190.0" />
<line stroke="#ff5500" stroke-width="1" x1="1592.0" y1="150.0" x2="1632.0" y2="150.0" />
<line stroke="#ff5500" stroke-width="1" x1="1592.0" y1="190.0" x2="1632.0" y2="190.0" />
<line stroke="#ff5500" stroke-width="1" x1="1632.0" y1="150.0" x2="1632.0" y2="190.0" />
<line stroke="#ff5500" stroke-width="1" x1="1592.0" y1="158.0" x2="1632.0" y2="158.0" />

<line stroke="#555500" stroke-width="1" x1="210.0" y1="120.0" x2="210.0" y2="190.0" />
<line stroke="#555500" stroke-width="1" x1="280.0" y1="120.0" x2="280.0" y2="190.0" />
<line stroke="#555500" stroke-width="1" x1="210.0" y1="120.0" x2="280.0" y2="120.0" />
<line stroke="#555500" stroke-width="1" x1="210.0" y1="190.0" x2="280.0" y2="190.0" />
<line stroke="#555500" stroke-width="1" x1="217.0" y1="120.0" x2="217.0" y2="127.0" />
<line stroke="#555500" stroke-width="1" x1="210.0" y1="127.0" x2="217.0" y2="127.0" />
<line stroke="#555500" stroke-width="1" x1="273.0" y1="120.0" x2="273.0" y2="127.0" />
<line stroke="#555500" stroke-width="1" x1="280.0" y1="127.0" x2="273.0" y2="127.0" />
<line stroke="#555500" stroke-width="1" x1="217.0" y1="190.0" x2="217.0" y2="183.0" />
<line stroke="#555500" stroke-width="1" x1="210.0" y1="183.0" x2="217.0" y2="183.0" />
<line stroke="#555500" stroke-width="1" x1="273.0" y1="190.0" x2="273.0" y2="183.0" />
<line stroke="#555500" stroke-width="1" x1="280.0" y1="183.0" x2="273.0" y2="183.0" />

<line stroke="#aa00ff" stroke-width="1" x1="200.0" y1="0.0" x2="2000.0" y2="0.0" />
<line stroke="#aa00ff" stroke-width="1" x1="210.0" y1="10.0" x2="1739.9999999999998" y2="10.0" />
<line stroke="#aa00ff" stroke-width="1" x1="200.0" y1="200.0" x2="2000.0" y2="200.0" />
<line stroke="#aa00ff" stroke-width="1" x1="210.0" y1="190.0" x2="1739.9999999999998" y2="190.0" />
<line stroke="#aa00ff" stroke-width="1" x1="0.0" y1="100.0" x2="200.0" y2="0.0" />
<line stroke="#aa00ff" stroke-width="1" x1="0.0" y1="100.0" x2="200.0" y2="200.0" />
<line stroke="#aa00ff" stroke-width="1" x1="1750.0" y1="0.0" x2="1750.0" y2="200.0" />
<line stroke="#aa00ff" stroke-width="1" x1="1739.9999999999998" y1="10.0" x2="1739.9999999999998" y2="190.0" />
<line stroke="#aa00ff" stroke-width="1" x1="200.0" y1="0.0" x2="200.0" y2="200.0" />
<line stroke="#aa00ff" stroke-width="1" x1="210.0" y1="10.0" x2="210.0" y2="190.0" />
<line stroke="#aa00ff" stroke-width="1" x1="2000.0" y1="0.0" x2="2000.0" y2="200.0" />
</svg>